<svg width="260" height="168" viewBox="0 0 260 168" fill="none" xmlns="http://www.w3.org/2000/svg">
<path d="M58.724 33.2402L68.9982 57.0227L90.4726 42.5817L86.2844 68.1548L112.141 67.6401L94.8205 86.8846L116.85 100.46L91.8962 107.266L103.105 130.62L78.4399 122.827L75.2685 148.546L58.724 128.628L42.1796 148.546L39.0081 122.827L14.3434 130.62L25.5519 107.266L0.597725 100.46L22.6276 86.8846L5.30677 67.6401L31.1636 68.1548L26.9754 42.5817L48.4499 57.0227L58.724 33.2402Z" fill="#8EFD01"/>
<rect x="59.1738" width="200.827" height="168" fill="#8B52ED"/>
<rect x="59.1738" width="200.827" height="33.2406" fill="#3A0078"/>
<rect x="200.83" y="11.6797" width="49.3103" height="10.7807" rx="5.39037" fill="white"/>
<ellipse cx="210.311" cy="17.327" rx="3.7931" ry="3.59358" fill="black"/>
<ellipse cx="225.484" cy="17.0701" rx="3.7931" ry="3.59358" fill="#8B52ED"/>
<ellipse cx="240.654" cy="17.0701" rx="3.7931" ry="3.59358" fill="#5A12BF"/>
<ellipse cx="78.6324" cy="53.7838" rx="6.74765" ry="6.74378" fill="white"/>
<ellipse cx="105.498" cy="53.7838" rx="6.74765" ry="6.74378" fill="white"/>
<ellipse cx="132.363" cy="53.7838" rx="6.74765" ry="6.74378" fill="#5A12BF"/>
<ellipse cx="159.226" cy="53.7838" rx="6.74765" ry="6.74378" fill="white"/>
<ellipse cx="186.089" cy="53.7838" rx="6.74765" ry="6.74378" fill="white"/>
<ellipse cx="212.955" cy="53.7838" rx="6.74765" ry="6.74378" fill="white"/>
<ellipse cx="239.82" cy="53.7838" rx="6.74765" ry="6.74378" fill="white"/>
<ellipse cx="78.6324" cy="77.2916" rx="6.74765" ry="6.74378" fill="#5A12BF"/>
<ellipse cx="105.498" cy="77.2916" rx="6.74765" ry="6.74378" fill="white"/>
<ellipse cx="132.363" cy="77.2916" rx="6.74765" ry="6.74378" fill="white"/>
<ellipse cx="159.226" cy="77.2916" rx="6.74765" ry="6.74378" fill="white"/>
<ellipse cx="186.089" cy="77.2916" rx="6.74765" ry="6.74378" fill="#5A12BF"/>
<ellipse cx="212.955" cy="77.2916" rx="6.74765" ry="6.74378" fill="white"/>
<ellipse cx="239.82" cy="77.2916" rx="6.74765" ry="6.74378" fill="white"/>
<ellipse cx="78.6324" cy="100.8" rx="6.74765" ry="6.74378" fill="white"/>
<ellipse cx="105.498" cy="100.8" rx="6.74765" ry="6.74378" fill="white"/>
<ellipse cx="132.363" cy="100.8" rx="6.74765" ry="6.74378" fill="white"/>
<ellipse cx="159.226" cy="100.8" rx="6.74765" ry="6.74378" fill="#5A12BF"/>
<ellipse cx="186.089" cy="100.8" rx="6.74765" ry="6.74378" fill="white"/>
<ellipse cx="212.955" cy="100.8" rx="6.74765" ry="6.74378" fill="white"/>
<ellipse cx="239.82" cy="100.8" rx="6.74765" ry="6.74378" fill="white"/>
<ellipse cx="78.6324" cy="124.308" rx="6.74765" ry="6.74378" fill="white"/>
<ellipse cx="105.498" cy="124.308" rx="6.74765" ry="6.74378" fill="#5A12BF"/>
<ellipse cx="132.363" cy="124.308" rx="6.74765" ry="6.74378" fill="white"/>
<ellipse cx="159.226" cy="124.308" rx="6.74765" ry="6.74378" fill="white"/>
<ellipse cx="186.089" cy="124.308" rx="6.74765" ry="6.74378" fill="white"/>
<ellipse cx="212.955" cy="124.308" rx="6.74765" ry="6.74378" fill="#5A12BF"/>
<ellipse cx="239.82" cy="124.308" rx="6.74765" ry="6.74378" fill="white"/>
<ellipse cx="78.6324" cy="147.816" rx="6.74765" ry="6.74378" fill="white"/>
<ellipse cx="105.498" cy="147.816" rx="6.74765" ry="6.74378" fill="white"/>
<ellipse cx="132.363" cy="147.816" rx="6.74765" ry="6.74378" fill="white"/>
<ellipse cx="159.226" cy="147.816" rx="6.74765" ry="6.74378" fill="#5A12BF"/>
</svg>
