<svg xmlns="http://www.w3.org/2000/svg" width="371" height="366" viewBox="0 0 371 366" fill="none">
<path d="M335.021 365.989C335.021 347.353 331.337 328.899 324.18 311.681C317.023 294.463 306.533 278.819 293.308 265.641C280.084 252.463 264.384 242.009 247.105 234.878C229.826 227.746 211.307 224.075 192.605 224.075C173.902 224.075 155.383 227.746 138.104 234.878C120.825 242.009 105.125 252.463 91.9008 265.641C78.6763 278.819 68.1859 294.463 61.0288 311.681C53.8717 328.899 50.188 347.353 50.188 365.989H192.605H335.021Z" fill="#3A0078"/>
<path d="M335.021 365.989C335.021 333.603 323.905 302.192 303.518 276.97C283.132 251.748 254.701 234.233 222.947 227.333L192.605 365.989H335.021Z" fill="#5200BA"/>
<path d="M76.1663 284.275C59.2593 308.197 50.1858 336.741 50.188 366L192.605 365.989L76.1663 284.275Z" fill="#280A53"/>
<path d="M296.044 0L303.454 47.1341L333.522 10.0068L316.289 54.5181L360.958 37.3458L323.699 67.3076L371 74.6917L323.699 82.0757L360.958 112.037L316.289 94.8652L333.522 139.377L303.454 102.249L296.044 149.383L288.634 102.249L258.566 139.377L275.799 94.8652L231.13 112.037L268.389 82.0757L221.088 74.6917L268.389 67.3076L231.13 37.3458L275.799 54.5181L258.566 10.0068L288.634 47.1341L296.044 0Z" fill="#8355FB"/>
<path d="M102.657 74.6917H296.044V191.211H102.657V74.6917Z" fill="white"/>
<path d="M149.515 104.392L192.076 178.623L266.182 135.543L242.463 94.1746L209.753 112.883L190.813 80.384L149.515 104.392Z" fill="#8355FB"/>
<path d="M204.376 142.264L193.74 149.574L198.722 161.453L185.808 161.872L183.554 174.55L172.463 167.946L163.688 177.396L157.941 165.865L145.432 169.088L146.853 156.291L134.581 152.264L142.72 142.264L134.581 132.264L146.853 128.237L145.432 115.44L157.941 118.663L163.688 107.132L172.463 116.582L183.554 109.978L185.808 122.655L198.722 123.075L193.74 134.954L204.376 142.264Z" fill="#5A12BF"/>
<path d="M155.804 217.642L157.987 241.08L131.221 225.681L131.482 217.017L130.787 208.978L131.85 165.149C131.886 163.655 131.69 161.909 132.765 160.867C132.904 160.732 133.063 160.633 133.245 160.592C135.329 160.126 135.719 163.67 136.172 165.75L139.183 179.601C139.183 179.601 139.372 179.673 139.47 179.62C139.564 179.568 139.607 179.383 139.607 179.383L139.415 159.081C139.395 156.963 139.062 154.396 140.715 153.065C140.854 152.953 141.007 152.866 141.172 152.813C143.773 151.988 144.757 156.248 144.995 158.958L146.764 179.094L147.995 155.613C148.11 153.424 148.396 150.257 150.594 150.154C153.122 150.036 153.352 153.924 153.387 156.445L153.697 178.676L156.194 160.459C156.492 158.28 156.868 155.172 159.07 155.03C161.664 154.863 161.789 158.924 161.541 161.503L159.817 179.405L161.064 195.988C171.119 186.025 176.574 187.185 178.044 189.01L170.656 200.478C165.956 211.054 158.797 216.327 155.804 217.642Z" fill="#8EFD01"/>
<path d="M131.576 225.024C120.008 235.221 107.477 323.25 102.657 365.989H171.617C171.617 365.989 161.606 238.52 158.27 229.523C154.933 220.525 143.143 214.826 131.576 225.024Z" fill="#8355FB"/>
<path fill-rule="evenodd" clipRule="evenodd" d="M179.816 128.767L166.596 156.211L152.482 150.402L154.771 144.879L163.644 148.531L174.41 126.181L179.816 128.767Z" fill="white"/>
<path d="M231.069 217.642L228.887 241.08L255.653 225.681L255.391 217.017L256.087 208.978L255.024 165.148C254.987 163.655 255.184 161.908 254.109 160.867C253.97 160.732 253.81 160.633 253.629 160.592C251.545 160.126 251.154 163.669 250.702 165.749L247.691 179.601C247.691 179.601 247.502 179.673 247.404 179.619C247.31 179.568 247.267 179.383 247.267 179.383L247.459 159.08C247.479 156.963 247.812 154.396 246.159 153.065C246.019 152.953 245.867 152.866 245.701 152.813C243.101 151.988 242.117 156.248 241.879 158.957L240.11 179.093L238.878 155.613C238.764 153.423 238.478 150.256 236.28 150.154C233.752 150.036 233.522 153.924 233.486 156.445L233.177 178.675L230.68 160.458C230.381 158.28 230.006 155.172 227.804 155.03C225.21 154.863 225.085 158.924 225.333 161.503L227.057 179.405L225.81 195.988C215.754 186.025 210.3 187.185 208.83 189.01L216.218 200.478C220.918 211.054 228.077 216.327 231.069 217.642Z" fill="#8EFD01"/>
<path d="M255.297 225.024C266.865 235.221 279.396 323.25 284.216 365.989H215.256C215.256 365.989 225.266 238.52 228.603 229.523C231.94 220.525 243.73 214.826 255.297 225.024Z" fill="#8355FB"/>
<path d="M165.62 187.725H222.587V191.211H165.62V187.725Z" fill="white"/>
<path d="M130.076 74.1613C130.076 77.1685 127.63 79.6064 124.612 79.6064C121.594 79.6064 119.148 77.1685 119.148 74.1613C119.148 71.1541 121.594 68.7163 124.612 68.7163C127.63 68.7163 130.076 71.1541 130.076 74.1613Z" fill="#8EFD01"/>
<path fill-rule="evenodd" clipRule="evenodd" d="M287.87 218.014C287.87 218.014 287.868 218.015 286.544 216.266C285.221 214.517 285.22 214.518 285.22 214.518L285.226 214.513L285.26 214.487C285.291 214.463 285.339 214.426 285.404 214.375C285.533 214.274 285.725 214.121 285.966 213.922C286.45 213.523 287.128 212.942 287.893 212.223C289.44 210.77 291.265 208.828 292.58 206.749C293.865 204.718 294.457 202.884 294.25 201.376C293.893 201.541 293.558 201.672 293.255 201.766C292.646 201.953 291.509 202.113 290.28 202.199C288.986 202.29 287.372 202.314 285.746 202.15C284.147 201.989 282.381 201.632 280.88 200.864C279.34 200.076 277.9 198.747 277.475 196.654C277.174 195.173 277.142 193.592 277.906 192.271C278.75 190.815 280.203 190.256 281.549 190.133C282.845 190.014 284.304 190.258 285.771 190.653C287.271 191.056 288.949 191.665 290.744 192.407C292.683 193.208 294.267 194.157 295.497 195.243C296.228 194.562 296.911 193.78 297.456 192.92C291.864 191.122 288.341 188.035 286.214 185.344C285.15 183.997 284.44 182.757 283.991 181.836C283.767 181.376 283.606 180.993 283.499 180.715C283.445 180.576 283.404 180.462 283.375 180.378C283.361 180.336 283.349 180.301 283.34 180.274L283.329 180.239L283.325 180.226L283.323 180.22L283.322 180.218C283.322 180.216 283.322 180.215 285.425 179.577L283.322 180.215L283.298 180.136L283.28 180.056C282.977 178.709 282.957 177.317 283.421 176.075C283.911 174.765 284.909 173.738 286.316 173.284C287.645 172.855 289.103 173.007 290.514 173.488C291.939 173.973 293.474 174.844 295.086 176.085C299.065 179.145 301.422 182.22 302.463 185.268C303.023 186.909 303.181 188.479 303.046 189.947C305.199 190.452 307.097 190.696 308.781 190.583C311.307 190.414 313.397 189.444 315.2 187.002C316.381 185.403 316.774 183.293 316.52 181.08C316.476 181.077 316.433 181.074 316.389 181.071C313.009 180.823 309.606 179.816 307.087 177.306C306.006 176.229 304.634 174.716 303.988 173.117C303.652 172.285 303.414 171.189 303.769 170.04C304.141 168.832 305.033 167.99 306.103 167.451C308.624 166.182 311.244 166.718 313.362 167.989C315.452 169.243 317.257 171.303 318.57 173.624C319.105 174.569 319.581 175.603 319.966 176.693C321.829 176.565 323.756 176.249 325.635 175.827C328.623 175.157 331.387 174.242 333.411 173.489C334.421 173.114 335.239 172.783 335.802 172.546C336.083 172.428 336.299 172.334 336.444 172.27C336.516 172.239 336.569 172.215 336.604 172.199L336.642 172.182L336.649 172.179C336.649 172.179 336.649 172.178 337.569 174.168C338.49 176.158 338.488 176.158 338.488 176.158L338.487 176.159L338.482 176.161L338.467 176.168L338.414 176.192C338.37 176.212 338.305 176.241 338.222 176.277C338.056 176.35 337.816 176.455 337.51 176.583C336.899 176.84 336.022 177.195 334.947 177.595C332.803 178.391 329.841 179.374 326.601 180.102C324.795 180.507 322.87 180.841 320.93 181.012C321.201 183.981 320.64 187.027 318.741 189.599C316.135 193.127 312.832 194.703 309.076 194.954C306.769 195.109 304.321 194.762 301.802 194.157C300.834 196.058 299.449 197.623 298.089 198.814C298.281 199.298 298.428 199.798 298.529 200.314C299.151 203.502 297.862 206.616 296.3 209.086C294.703 211.609 292.581 213.841 290.908 215.412C290.063 216.206 289.313 216.849 288.771 217.296C288.5 217.52 288.28 217.695 288.125 217.817C288.047 217.878 287.986 217.925 287.943 217.958L287.891 217.998L287.876 218.009L287.87 218.014ZM315.131 176.511C315.008 176.263 314.877 176.018 314.74 175.775C313.694 173.926 312.37 172.508 311.094 171.742C309.847 170.994 308.867 170.968 308.086 171.361C308.067 171.371 308.049 171.381 308.032 171.389C308.042 171.417 308.053 171.447 308.067 171.482C308.348 172.177 309.128 173.144 310.196 174.208C311.399 175.407 313.07 176.157 315.131 176.511ZM298.69 188.712C298.665 188.064 298.542 187.388 298.301 186.68C297.626 184.705 295.948 182.282 292.4 179.553C291.044 178.51 289.933 177.92 289.091 177.633C288.234 177.341 287.802 177.41 287.672 177.452C287.668 177.453 287.665 177.454 287.662 177.455C287.617 177.469 287.589 177.478 287.541 177.605C287.467 177.803 287.395 178.248 287.548 178.997C287.561 179.032 287.579 179.08 287.602 179.14C287.668 179.312 287.78 179.58 287.946 179.921C288.279 180.603 288.827 181.569 289.668 182.633C291.316 184.718 294.105 187.212 298.69 188.712ZM291.45 197.673C290.804 197.259 290.017 196.85 289.06 196.454C287.355 195.75 285.87 195.218 284.625 194.883C283.347 194.539 282.479 194.448 281.951 194.496C281.832 194.507 281.751 194.522 281.698 194.535C281.669 194.683 281.636 195.053 281.784 195.785C281.864 196.175 282.121 196.573 282.889 196.966C283.695 197.379 284.845 197.656 286.189 197.791C287.504 197.924 288.858 197.907 289.971 197.829C290.525 197.79 291.003 197.737 291.371 197.684C291.398 197.68 291.424 197.676 291.45 197.673ZM281.612 194.567C281.61 194.567 281.617 194.562 281.635 194.555C281.622 194.564 281.613 194.568 281.612 194.567Z" fill="#5200BA"/>
<path fill-rule="evenodd" clipRule="evenodd" d="M9.00736 89.63L93.0028 111.013L92.1934 114.17L8.19798 92.7869L9.00736 89.63Z" fill="#8355FB"/>
<path fill-rule="evenodd" clipRule="evenodd" d="M0 128.798L86.6873 127.789L86.7254 131.047L0.0381753 132.056L0 128.798Z" fill="#8355FB"/>
<path fill-rule="evenodd" clipRule="evenodd" d="M13.4402 189.181L88.0076 145.117L89.6755 147.92L15.1081 191.984L13.4402 189.181Z" fill="#8355FB"/>
</svg>