<svg width="20" height="20" viewBox="0 0 20 20" fill="none" xmlns="http://www.w3.org/2000/svg">
<path fill-rule="evenodd" clip-rule="evenodd" d="M5.83499 5.83452C5.83612 5.44591 5.84083 5.1115 5.86036 4.82522C5.88704 4.43415 5.94415 4.07241 6.08837 3.72423C6.42668 2.90747 7.0756 2.25855 7.89236 1.92024C8.24054 1.77602 8.60228 1.71891 8.99335 1.69223C9.37052 1.66649 9.83124 1.6665 10.3894 1.6665H13.5357C14.2065 1.66649 14.7602 1.66649 15.2112 1.70333C15.6796 1.7416 16.1102 1.82374 16.5146 2.02982C17.1418 2.34939 17.6517 2.85933 17.9713 3.48654C18.1774 3.89098 18.2595 4.32157 18.2978 4.78998C18.3347 5.24098 18.3347 5.79462 18.3346 6.46544V9.61173C18.3346 10.1699 18.3347 10.6306 18.3089 11.0078C18.2822 11.3989 18.2251 11.7606 18.0809 12.1088C17.7426 12.9255 17.0937 13.5745 16.2769 13.9128C15.9287 14.057 15.567 14.1141 15.1759 14.1408C14.8896 14.1603 14.5552 14.165 14.1666 14.1662C14.1639 14.5625 14.1557 14.9089 14.1311 15.2097C14.0929 15.6781 14.0107 16.1087 13.8047 16.5131C13.4851 17.1403 12.9751 17.6503 12.3479 17.9699C11.9435 18.1759 11.5129 18.2581 11.0445 18.2963C10.5935 18.3332 10.0399 18.3332 9.36903 18.3332H6.46691C5.79609 18.3332 5.24245 18.3332 4.79145 18.2963C4.32303 18.2581 3.89245 18.1759 3.488 17.9699C2.86079 17.6503 2.35086 17.1403 2.03128 16.5131C1.82521 16.1087 1.74307 15.6781 1.7048 15.2097C1.66795 14.7587 1.66796 14.2051 1.66797 13.5343V10.6321C1.66796 9.96129 1.66795 9.40764 1.7048 8.95665C1.74307 8.48824 1.82521 8.05765 2.03128 7.6532C2.35086 7.026 2.86079 6.51606 3.488 6.19648C3.89245 5.99041 4.32303 5.90827 4.79145 5.87C5.09221 5.84543 5.43862 5.83725 5.83499 5.83452ZM13.5013 3.33317C14.2151 3.33317 14.7004 3.33382 15.0754 3.36446C15.4408 3.39431 15.6276 3.44842 15.758 3.51483C16.0716 3.67462 16.3265 3.92958 16.4863 4.24319C16.5527 4.37352 16.6068 4.56036 16.6367 4.9257C16.6673 5.30078 16.668 5.78602 16.668 6.49984V9.58317C16.668 10.177 16.6675 10.5806 16.6461 10.8943C16.6252 11.2005 16.5872 11.3597 16.5411 11.471C16.3719 11.8794 16.0475 12.2038 15.6391 12.373C15.5279 12.4191 15.3687 12.4571 15.0625 12.478C14.8283 12.494 14.544 12.4983 14.168 12.4994V10.6321C14.168 9.96129 14.168 9.40765 14.1311 8.95665C14.0929 8.48824 14.0107 8.05765 13.8047 7.6532C13.4851 7.026 12.9751 6.51606 12.3479 6.19648C11.9435 5.99041 11.5129 5.90827 11.0445 5.87C10.5935 5.83315 10.0399 5.83316 9.36905 5.83317H7.50172C7.50288 5.4571 7.50718 5.17283 7.52316 4.93868C7.54405 4.63246 7.58209 4.47328 7.62817 4.36203C7.79733 3.95365 8.12178 3.6292 8.53016 3.46004C8.64141 3.41396 8.80059 3.37592 9.10681 3.35503C9.4205 3.33362 9.82414 3.33317 10.418 3.33317H13.5013ZM4.24465 7.6815C4.37499 7.61509 4.56182 7.56098 4.92717 7.53113C5.30224 7.50049 5.78749 7.49984 6.5013 7.49984H9.33464C10.0485 7.49984 10.5337 7.50049 10.9088 7.53113C11.2741 7.56098 11.461 7.61509 11.5913 7.6815C11.9049 7.84128 12.1599 8.09625 12.3196 8.40985C12.3861 8.54019 12.4402 8.72702 12.47 9.09237C12.5007 9.46744 12.5013 9.95269 12.5013 10.6665V13.4998C12.5013 14.2137 12.5007 14.6989 12.47 15.074C12.4402 15.4393 12.3861 15.6262 12.3196 15.7565C12.1599 16.0701 11.9049 16.3251 11.5913 16.4848C11.461 16.5513 11.2741 16.6054 10.9088 16.6352C10.5337 16.6659 10.0485 16.6665 9.33464 16.6665H6.5013C5.78749 16.6665 5.30224 16.6659 4.92717 16.6352C4.56182 16.6054 4.37499 16.5513 4.24465 16.4848C3.93105 16.3251 3.67608 16.0701 3.51629 15.7565C3.44988 15.6262 3.39578 15.4393 3.36593 15.074C3.33528 14.6989 3.33464 14.2137 3.33464 13.4998V10.6665C3.33464 9.95269 3.33528 9.46744 3.36593 9.09237C3.39578 8.72702 3.44988 8.54019 3.51629 8.40985C3.67608 8.09625 3.93105 7.84128 4.24465 7.6815Z" fill="#8F8FA3"/>
</svg>
