<svg width="480" height="302" viewBox="0 0 480 302" fill="none" xmlns="http://www.w3.org/2000/svg">
<rect x="50.9199" y="72.7168" width="264.14" height="144.755" fill="#8355FB" fill-opacity="0.4"/>
<rect x="93.3496" y="114.981" width="264.14" height="144.755" fill="#A17EFC"/>
<path fill-rule="evenodd" clip-rule="evenodd" d="M473.494 153.516L409.379 171.429L408.701 169.02L472.815 151.107L473.494 153.516Z" fill="#8355FB"/>
<path fill-rule="evenodd" clip-rule="evenodd" d="M464.385 124.027L407.11 157.858L405.829 155.706L463.104 121.875L464.385 124.027Z" fill="#8355FB"/>
<path fill-rule="evenodd" clip-rule="evenodd" d="M432.179 89.0199L399.56 146.843L397.37 145.617L429.989 87.7945L432.179 89.0199Z" fill="#8355FB"/>
<rect x="135.781" y="157.245" width="264.14" height="144.755" fill="#8355FB"/>
<mask id="mask0_46723_20516" style="mask-type:alpha" maskUnits="userSpaceOnUse" x="135" y="157" width="265" height="145">
<rect x="135.781" y="157.245" width="264.14" height="144.755" fill="#5200BA"/>
</mask>
<g mask="url(#mask0_46723_20516)">
<rect x="0.640977" y="0.370068" width="40.4917" height="40.0512" transform="matrix(0.965951 -0.258725 0.258913 0.965901 207.864 208.252)" stroke="black" stroke-width="1.04661"/>
<rect x="0.640977" y="0.370068" width="40.5054" height="39.739" transform="matrix(0.965951 -0.258725 0.258913 0.965901 247.078 197.976)" stroke="black" stroke-width="1.04661"/>
<rect x="0.640977" y="0.370068" width="39.8372" height="39.6414" transform="matrix(0.965951 -0.258725 0.258913 0.965901 286.057 187.191)" stroke="black" stroke-width="1.04661"/>
<rect x="0.640977" y="0.370068" width="40.3442" height="40.4777" transform="matrix(0.965951 -0.258725 0.258913 0.965901 218.242 246.869)" stroke="black" stroke-width="1.04661"/>
<rect x="0.640977" y="0.370068" width="41.1287" height="40.5156" transform="matrix(0.965951 -0.258725 0.258913 0.965901 257.08 236.426)" stroke="black" stroke-width="1.04661"/>
<rect x="0.640977" y="0.370068" width="41.705" height="40.0643" transform="matrix(0.965951 -0.258725 0.258913 0.965901 267.256 275.335)" stroke="black" stroke-width="1.04661"/>
<rect x="0.640977" y="0.370068" width="40.1305" height="39.9875" transform="matrix(0.965951 -0.258725 0.258913 0.965901 228.666 285.751)" stroke="black" stroke-width="1.04661"/>
<rect x="0.640977" y="0.370068" width="40.4917" height="40.4777" transform="matrix(0.965951 -0.258725 0.258913 0.965901 306.655 264.015)" stroke="black" stroke-width="1.04661"/>
<ellipse cx="11.4046" cy="11.4008" rx="11.4046" ry="11.4008" transform="matrix(0.965951 -0.258725 0.258913 0.965901 296.869 192.695)" fill="#42217C"/>
<path d="M294.201 251.981C299.522 299.568 348.276 332.824 371.988 343.504C365.709 347.628 359.169 355.496 349.824 361.655C336.759 370.267 319.717 376.104 313.518 378.656C300.23 384.127 276.45 389.088 262.316 365.848C248.182 342.607 262.317 308.974 270.444 280.87C276.945 258.387 268.274 231.631 263.036 220.587C260.412 215.054 253.425 213.652 248.051 217.737C241.186 222.956 224.807 224.12 215.16 223.591L242.233 196.972C244.309 192.339 249.478 184.495 260.495 181.554C274.266 177.879 287.549 192.496 294.201 251.981Z" fill="#95FD34"/>
<ellipse cx="3.28344" cy="3.27169" rx="3.28344" ry="3.27169" transform="matrix(-0.966182 0.257863 0.259778 0.965668 258.189 192.792)" fill="white"/>
<mask id="mask1_46723_20516" style="mask-type:alpha" maskUnits="userSpaceOnUse" x="215" y="181" width="157" height="203">
<path d="M294.201 251.981C299.522 299.568 348.276 332.824 371.988 343.504C365.709 347.628 359.169 355.496 349.824 361.655C336.759 370.267 319.717 376.104 313.518 378.656C300.23 384.127 276.45 389.088 262.316 365.848C248.182 342.607 262.317 308.974 270.444 280.87C276.945 258.387 268.274 231.631 263.036 220.587C260.412 215.054 253.425 213.652 248.051 217.737C241.186 222.956 224.807 224.12 215.16 223.591L242.233 196.972C244.309 192.339 249.478 184.495 260.495 181.554C274.266 177.879 287.549 192.496 294.201 251.981Z" fill="url(#paint0_linear_46723_20516)"/>
</mask>
<g mask="url(#mask1_46723_20516)">
<ellipse cx="26.566" cy="44.4653" rx="26.566" ry="44.4653" transform="matrix(-0.966182 0.257863 0.259778 0.965668 284.844 291.879)" fill="white"/>
</g>
<rect x="362.789" y="166.754" width="27.4434" height="6.21246" rx="3.07516" fill="white"/>
<ellipse cx="368.07" cy="170.009" rx="2.11103" ry="2.07082" fill="black"/>
<ellipse cx="376.511" cy="169.859" rx="2.11103" ry="2.07082" fill="#8B52ED"/>
<ellipse cx="384.955" cy="169.859" rx="2.11103" ry="2.07082" fill="#5A12BF"/>
</g>
<rect width="106.918" height="38.0052" rx="19.0026" transform="matrix(0.86611 0.499854 -0.500146 0.865941 69.9219 178.378)" fill="#8355FB"/>
<ellipse cx="12.9224" cy="12.3208" rx="12.9224" ry="12.3208" transform="matrix(1 0 0.00104541 0.999999 120.785 225.172)" fill="white"/>
<path d="M148.715 246.581C147.322 248.897 145.142 250.713 142.486 251.769L136.395 239.992L148.715 246.581Z" fill="#8B52ED"/>
<path d="M352.189 120.264H323.547L352.189 148.793V120.264Z" fill="white"/>
<rect width="5.29354" height="30.5373" transform="matrix(0.708507 0.705704 -0.708507 0.705704 344.881 124.489)" fill="white"/>
<ellipse cx="18.7007" cy="18.6975" rx="18.7007" ry="18.6975" transform="matrix(0.499873 -0.866099 0.865952 0.500126 82.0625 114.515)" fill="white"/>
<path d="M94.041 111.307L107.463 107.924M120.884 104.54L107.463 107.924M107.463 107.924L103.681 94.6046M107.463 107.924L111.244 121.243" stroke="black" stroke-width="1.55368"/>
<ellipse cx="8.29584" cy="8.29446" rx="8.29584" ry="8.29446" transform="matrix(0.499873 -0.866099 0.865952 0.500126 121.352 133.491)" fill="white"/>
<path d="M126.662 132.067L132.617 130.566M138.571 129.064L132.617 130.566M132.617 130.566L130.939 124.656M132.617 130.566L134.294 136.475" stroke="black" stroke-width="1.16526"/>
<ellipse cx="5.40562" cy="5.40472" rx="5.40562" ry="5.40472" transform="matrix(0.499873 -0.866099 0.865952 0.500126 134.387 114.03)" fill="white"/>
<path d="M137.846 113.103L141.726 112.124M145.606 111.146L141.726 112.124M141.726 112.124L140.633 108.274M141.726 112.124L142.819 115.975" stroke="black" stroke-width="0.776842"/>
<path d="M57.79 22L70.4398 45.0426L94.9367 35.5248L89.8205 61.3103L114.702 69.7708L94.2137 86.2339L107.838 108.714L81.5639 108.151L77.5554 134.132L57.79 116.807L38.0247 134.132L34.0161 108.151L7.7424 108.714L21.3663 86.2339L0.87796 69.7708L25.7595 61.3103L20.6433 35.5248L45.1402 45.0426L57.79 22Z" fill="#95FD34"/>
<path d="M57.7868 0.5979C50.6959 0.5979 44.1783 2.57914 39.1721 5.8553C38.9212 6.00823 38.7131 6.19827 38.5602 6.4141C38.4072 6.62993 38.3126 6.86713 38.282 7.11155C38.2514 7.35596 38.2854 7.6026 38.382 7.83674C38.4785 8.07089 38.6357 8.28775 38.8441 8.47439C39.0525 8.66104 39.3078 8.81365 39.5949 8.92313C39.882 9.0326 40.1949 9.09669 40.5151 9.11159C40.8352 9.12648 41.156 9.09187 41.4583 9.00982C41.7606 8.92777 42.0382 8.79996 42.2746 8.63401C46.4505 5.90119 51.8549 4.25522 57.7868 4.25522C70.1996 4.25522 80.362 11.4564 81.5568 20.7132H74.5074L84.062 31.6851L93.6167 20.7132H86.3294C85.1081 9.46994 72.7824 0.5979 57.7868 0.5979ZM31.5116 13.3985L21.957 24.3705H29.2443C30.4656 35.6137 42.7913 44.4858 57.7868 44.4858C64.8778 44.4858 71.3954 42.5045 76.4016 39.2284C76.6525 39.0754 76.8606 38.8854 77.0135 38.6696C77.1665 38.4537 77.2611 38.2165 77.2917 37.9721C77.3223 37.7277 77.2883 37.4811 77.1917 37.2469C77.0952 37.0128 76.938 36.7959 76.7296 36.6093C76.5212 36.4226 76.2659 36.27 75.9788 36.1605C75.6917 36.0511 75.3788 35.987 75.0586 35.9721C74.7385 35.9572 74.4177 35.9918 74.1154 36.0738C73.8131 36.1559 73.5355 36.2837 73.2991 36.4497C69.1232 39.1825 63.7188 40.8284 57.7868 40.8284C45.3741 40.8284 35.2117 33.6273 34.0169 24.3705H41.0663L31.5116 13.3985Z" fill="black"/>
<ellipse cx="57.2095" cy="79.2315" rx="8.66851" ry="8.67139" fill="black"/>
<defs>
<linearGradient id="paint0_linear_46723_20516" x1="265.759" y1="180.15" x2="318.537" y2="377.904" gradientUnits="userSpaceOnUse">
<stop stop-color="#100F17"/>
<stop offset="1" stop-color="#4A2D87"/>
</linearGradient>
</defs>
</svg>
