<svg width="482" height="301" viewBox="0 0 482 301" fill="none" xmlns="http://www.w3.org/2000/svg">
<path d="M457.304 182.968H420.248V147.642H335.549V116.128L409.156 4.04907H457.304V115.619H480.999V147.642H457.304V182.968ZM372.857 115.619H420.248V43.9501L372.857 115.619Z" stroke="#18181B" stroke-width="2"/>
<path d="M188.354 26.4146C201.462 9.47154 218.939 1 240.786 1C262.633 1 280.027 9.47154 292.967 26.4146C306.075 43.3577 312.629 65.7226 312.629 93.5093C312.629 121.296 306.075 143.661 292.967 160.604C280.027 177.547 262.633 186.019 240.786 186.019C218.939 186.019 201.462 177.547 188.354 160.604C175.413 143.661 168.943 121.296 168.943 93.5093C168.943 65.7226 175.413 43.3577 188.354 26.4146ZM215.83 135.952C221.544 146.795 229.863 152.217 240.786 152.217C251.71 152.217 260.029 146.795 265.742 135.952C271.456 125.108 274.313 110.961 274.313 93.5093C274.313 76.0579 271.456 61.9104 265.742 51.0669C260.029 40.2233 251.71 34.8015 240.786 34.8015C229.863 34.8015 221.544 40.2233 215.83 51.0669C210.285 61.9104 207.512 76.0579 207.512 93.5093C207.512 110.961 210.285 125.108 215.83 135.952Z" stroke="#18181B" stroke-width="2"/>
<path d="M122.755 182.968H85.6992V147.642H1V116.128L74.6076 4.04907H122.755V115.619H146.451V147.642H122.755V182.968ZM38.308 115.619H85.6992V43.9501L38.308 115.619Z" stroke="#18181B" stroke-width="2"/>
<path d="M281.549 123.703C271.901 187.652 323.245 248.026 350.123 270.22C340.594 273.416 329.429 281.405 315.238 286.187C295.399 292.873 271.393 294.556 262.512 295.727C243.475 298.238 211.082 296.43 200.916 261.182C190.749 225.933 220.651 186.969 240.884 153.127C257.07 126.053 255.17 88.1198 252.246 71.8848C250.781 63.7506 242.256 59.488 233.907 62.9472C223.242 67.3658 201.713 63.1815 189.454 59.1311L233.608 33.8246C237.894 28.5022 247.283 20.0667 262.512 20.0667C281.549 20.0667 293.61 43.7664 281.549 123.703Z" fill="#A73AFD"/>
<path d="M188.596 283.137C198.959 286.823 215.475 274.738 215.475 274.738L223.538 284.221L193.434 292.349C193.434 292.349 194.086 295.597 193.434 297.497C191.768 302.345 180.801 300.748 180.801 300.748C180.801 300.748 164.859 299.94 154.997 297.497C148.743 295.948 139.316 292.349 139.316 292.349L149.084 284.221L146.396 267.965H162.254L167.523 258.069C167.523 258.069 171.608 266.761 175.425 271.487C179.745 276.836 182.142 280.842 188.596 283.137Z" fill="#A73AFD"/>
<path d="M183.352 237.892C192.415 244.155 211.473 236.789 211.473 236.789L216.825 248.051L185.659 248.052C185.659 248.052 185.455 251.359 184.336 253.024C181.482 257.273 171.299 252.87 171.299 252.87C171.299 252.87 156.107 247.933 147.209 243.001C141.566 239.874 133.385 233.94 133.385 233.94L144.908 228.635L146.487 212.232L161.806 216.368L169.437 208.183C169.437 208.183 171.15 217.644 173.623 223.204C176.422 229.497 177.707 233.992 183.352 237.892Z" fill="#A73AFD"/>
<ellipse cx="4.38552" cy="4.4186" rx="4.38552" ry="4.4186" transform="matrix(-1 0 0 1 255.635 33.9248)" fill="black"/>
<mask id="mask0_46616_16184" style="mask-type:alpha" maskUnits="userSpaceOnUse" x="189" y="20" width="162" height="277">
<path d="M281.549 123.703C271.901 187.652 323.245 248.026 350.123 270.22C340.594 273.416 329.429 281.405 315.238 286.187C295.399 292.873 271.393 294.556 262.512 295.727C243.475 298.238 211.082 296.43 200.916 261.182C190.749 225.933 220.651 186.969 240.884 153.127C257.07 126.053 255.17 88.1198 252.246 71.8848C250.781 63.7506 242.256 59.488 233.907 62.9472C223.242 67.3658 201.713 63.1815 189.454 59.1311L233.608 33.8246C237.894 28.5022 247.283 20.0667 262.512 20.0667C281.549 20.0667 293.61 43.7664 281.549 123.703Z" fill="url(#paint0_linear_46616_16184)"/>
</mask>
<g mask="url(#mask0_46616_16184)">
<ellipse cx="35.4829" cy="60.0528" rx="35.4829" ry="60.0528" transform="matrix(-1 0 0 1 255.635 172.509)" fill="black"/>
</g>
<defs>
<linearGradient id="paint0_linear_46616_16184" x1="269.788" y1="20.0667" x2="269.788" y2="296.493" gradientUnits="userSpaceOnUse">
<stop stop-color="#100F17"/>
<stop offset="1" stop-color="#4A2D87"/>
</linearGradient>
</defs>
</svg>
