<svg width="12" height="12" viewBox="0 0 12 12" fill="none" xmlns="http://www.w3.org/2000/svg">
<path fill-rule="evenodd" clip-rule="evenodd" d="M1 6C1 3.23858 3.23858 1 6 1C8.76142 1 11 3.23858 11 6C11 8.76142 8.76142 11 6 11C3.23858 11 1 8.76142 1 6ZM7.55594 3.67483C7.6525 3.4431 7.54292 3.17698 7.31119 3.08043C7.07946 2.98387 6.81334 3.09345 6.71678 3.32518L5.69697 5.77274H4.18182C3.93078 5.77274 3.72727 5.97624 3.72727 6.22728C3.72727 6.47832 3.93078 6.68183 4.18182 6.68183H5.69697C6.06397 6.68183 6.39498 6.46116 6.53613 6.12239L7.55594 3.67483Z" fill="#A73AFD"/>
</svg>
