<svg  viewBox="0 0 814 610" fill="none" xmlns="http://www.w3.org/2000/svg">
<g clip-path="url(#clip0_2608_7658)">
<path d="M678.851 60.976L653.006 65.5974C638.738 68.1549 627.342 78.9233 623.977 93.0119L617.875 118.542L613.253 92.7427C610.696 78.4746 599.927 67.0781 585.839 63.6681L560.309 57.566L586.153 52.9446C600.421 50.3871 611.817 39.6187 615.227 25.53L621.329 0L625.951 25.8441C628.508 40.1122 639.277 51.5088 653.365 54.9188L678.895 61.0208L678.851 60.976Z" fill="#7ADD28"/>
<path d="M186.153 74.3023C193.556 61.3354 212.266 61.3354 219.714 74.3023C224.65 82.9619 235.329 86.4168 244.437 82.3338C258.077 76.1868 273.242 87.1795 271.582 102.031C270.505 111.947 277.101 121.055 286.882 123.074C301.509 126.125 307.342 143.938 297.247 154.975C290.517 162.334 290.517 173.596 297.247 180.954C307.297 192.037 301.509 209.804 286.882 212.856C277.146 214.875 270.505 223.983 271.582 233.899C273.242 248.75 258.077 259.743 244.437 253.596C235.373 249.513 224.65 252.968 219.714 261.627C212.311 274.594 193.601 274.594 186.153 261.627C181.217 252.968 170.539 249.513 161.431 253.596C147.791 259.743 132.625 248.75 134.285 233.899C135.362 223.983 128.766 214.875 118.985 212.856C104.358 209.804 98.5252 191.992 108.621 180.954C115.351 173.596 115.351 162.334 108.621 154.975C98.5701 143.893 104.358 126.125 118.985 123.074C128.722 121.055 135.362 111.947 134.285 102.031C132.625 87.1795 147.791 76.1419 161.431 82.3338C170.494 86.4168 181.217 82.9619 186.153 74.3023Z" fill="#7ADD28"/>
<path d="M195.185 582.569L182.981 584.768C176.206 585.979 170.822 591.094 169.251 597.735L166.38 609.804L164.181 597.6C162.97 590.825 157.855 585.441 151.214 583.87L139.145 580.999L151.349 578.8C158.124 577.589 163.508 572.474 165.078 565.833L167.95 553.764L170.148 565.968C171.36 572.743 176.475 578.127 183.115 579.698L195.185 582.569Z" fill="#7ADD28"/>
<path d="M552.1 425.125L531.551 463.757L577.047 424.587L574.221 481.973L609.801 416.062L605.853 510.509L623.351 424.093L672.302 503.959L658.348 412.697L734.759 450.835L673.02 381.962L772.359 387.436L684.462 356.522L771.955 296.937L676.7 333.325" stroke="#8455FB" stroke-width="8.97365" stroke-linecap="round" stroke-linejoin="round"/>
<path d="M429.845 521.595C438.221 521.595 445.011 514.805 445.011 506.429C445.011 498.054 438.221 491.264 429.845 491.264C421.47 491.264 414.68 498.054 414.68 506.429C414.68 514.805 421.47 521.595 429.845 521.595Z" fill="#19191B"/>
<path d="M719.332 80.4468C723.718 80.4468 727.274 76.8912 727.274 72.5052C727.274 68.1191 723.718 64.5635 719.332 64.5635C714.946 64.5635 711.391 68.1191 711.391 72.5052C711.391 76.8912 714.946 80.4468 719.332 80.4468Z" fill="#19191B"/>
<path d="M202.891 103.916V232.015" stroke="#19191B" stroke-width="8.97365" stroke-miterlimit="10"/>
<path d="M138.867 167.988H266.966" stroke="#19191B" stroke-width="8.97365" stroke-miterlimit="10"/>
<path d="M157.617 213.258L248.206 122.669" stroke="#19191B" stroke-width="8.97365" stroke-miterlimit="10"/>
<path d="M157.617 122.669L248.206 213.258" stroke="#19191B" stroke-width="8.97365" stroke-miterlimit="10"/>
<path d="M56.7136 424.093C56.7136 424.093 -0.628006 312.371 108.402 281.771C108.402 281.771 160.494 269.432 179.428 291.462C179.428 291.462 194.863 222.814 268.088 205.27C335.749 188.983 355.85 207.559 376.041 219.045C376.041 219.045 415.076 142.948 473.405 128.232C543.086 110.598 572.07 134.962 577.858 161.075C577.858 161.075 675.985 113.964 726.058 132.763C790.624 156.947 810.007 268.669 757.242 305.327C693.574 349.522 600.023 337.901 563.815 330.543C563.815 330.543 486.641 407.985 363.164 398.024C363.164 398.024 256.781 498.35 165.654 471.653C165.654 471.653 118.273 518.271 77.0389 489.242C35.805 460.212 56.6688 424.183 56.6688 424.183L56.7136 424.093Z" fill="#8455FB" stroke="#8455FB" stroke-width="26.921" stroke-miterlimit="10"/>
<path d="M222.641 451.239C207.925 454.963 187.779 456.668 175.619 442.175C166.691 431.586 165.075 415.568 170.819 393.538C157.807 408.524 143.853 426.023 131.2 442.848C125.098 452.046 118.368 461.289 110.964 470.577C106.208 476.544 97.5936 477.711 91.4466 473.134C85.3445 468.558 83.9536 459.943 88.3507 453.706C91.8056 448.816 98.8948 438.81 108.182 426.426C128.912 394.929 138.02 369.668 142.013 352.663C143.718 345.349 139.994 339.561 135.956 336.555C133.623 334.805 127.341 331.261 120.028 335.568C85.9727 355.445 97.5039 415.164 97.6385 415.793C99.164 423.42 94.2285 430.868 86.6009 432.439C78.9733 433.964 71.5251 429.074 69.9547 421.446C69.2817 418.171 54.2508 341.356 105.76 311.25C120.656 302.545 138.648 303.532 152.737 313.897C165.075 323.005 171.671 337.677 170.505 352.528C182.798 340.459 194.33 331.261 203.528 327.941C209.136 325.922 215.328 327.627 219.142 332.158C222.956 336.69 223.494 343.151 220.533 348.266C202.361 379.808 191.054 416.6 197.246 424.004C198.547 425.529 206.489 427.772 227.712 420.01C270.336 404.396 294.431 376.443 307.801 352.573C276.932 365.226 253.645 365.136 237.358 352.573C211.469 332.517 216.584 289.13 226.365 264.856C236.147 240.537 257.728 223.083 282.675 219.359C305.378 215.994 326.691 224.34 341.183 242.332C350.695 254.177 355.182 272.573 354.24 293.796C359.041 290.476 364.021 286.886 369.271 283.027C374.476 279.214 381.61 279.393 386.635 283.476C391.615 287.604 393.186 294.559 390.404 300.436C382.193 317.756 369.226 350.375 369.406 363.97C369.495 371.777 363.259 378.148 355.496 378.283C347.689 378.373 341.318 372.136 341.183 364.374C341.049 355.4 343.875 343.6 347.555 331.934C347.465 331.979 347.42 332.024 347.33 332.068C330.998 384.654 290.258 427.234 237.448 446.572C234.173 447.784 228.923 449.713 222.686 451.283L222.641 451.239ZM282.899 248.03C269.484 251.395 258.042 261.58 252.524 275.355C245.838 291.956 242.742 321.031 254.632 330.229C259.164 333.729 275.765 340.549 323.012 313.628C329.024 287.649 325.435 267.862 319.153 260.055C308.16 246.415 294.161 246.191 286.803 247.312C285.502 247.492 284.156 247.761 282.899 248.075V248.03Z" fill="white"/>
<path d="M389.186 392.282C386.897 392.866 384.43 392.866 382.007 392.193C374.469 390.129 370.072 382.367 372.136 374.874C372.36 374.111 374.2 367.425 377.475 356.702C377.116 356.567 376.757 356.433 376.353 356.298C368.995 353.741 365.091 345.664 367.694 338.306C370.251 330.947 378.328 327.044 385.686 329.646C385.821 329.691 385.955 329.736 386.09 329.781C392.282 311.385 400.313 289.085 409.825 266.337C442.355 188.715 474.256 147.75 507.369 140.93C522.624 137.79 533.886 140.571 540.795 149.141C548.872 159.147 548.378 174.043 539.225 194.638C534.2 205.989 526.393 219.315 517.015 232.821C519.528 233.628 522.085 234.57 524.688 235.647C546.494 244.98 554.435 266.92 544.879 291.553C529.444 331.351 471.743 372.047 405.024 363.118C401.435 374.829 399.416 382.008 399.371 382.232C397.98 387.302 393.987 390.981 389.186 392.193V392.282ZM413.863 335.838C466.987 340.639 508.939 306.27 518.541 281.413C524.374 266.337 516.836 263.107 513.56 261.716C507.997 259.338 502.837 258.126 498.081 257.722C468.468 293.168 456.623 293.886 452.136 294.111C443.566 294.604 436.477 290.88 433.022 284.105C425.574 302.411 419.068 320.359 413.863 335.793V335.838ZM512.17 168.838C502.657 171.216 480.807 183.735 451.104 243.768C459.853 237.263 471.205 231.968 484.172 230.084C486.684 226.853 489.242 223.398 491.844 219.764C511.407 192.305 517.733 174.671 518.316 167.986C517.15 167.986 515.445 168.165 513.112 168.659C512.843 168.704 512.529 168.794 512.214 168.883L512.17 168.838Z" fill="white"/>
<path d="M620.58 308.605C601.017 313.541 581.499 309.637 567.814 297.837C556.642 288.235 550.495 274.416 550.181 258.981C543.586 256.828 539.637 254.808 539.188 254.539C532.279 250.95 529.587 242.425 533.176 235.515C536.766 228.605 545.246 225.913 552.155 229.503C552.38 229.637 553.457 230.131 555.251 230.849C564.404 205.05 584.64 187.461 613.445 180.462C632.425 175.93 652.526 188.134 658.314 207.652C663.518 225.24 655.801 247.54 626.816 257.904C609.183 264.186 592.851 265.487 579.211 264.59C580.333 269.346 582.711 273.384 586.255 276.48C593.389 282.627 604.517 284.152 615.958 280.608C636.328 274.326 642.475 272.442 660.064 250.815C664.999 244.758 673.883 243.861 679.94 248.751C685.997 253.687 686.895 262.571 682.004 268.628C659.929 295.728 648.398 300.17 624.348 307.574C623.092 307.977 621.881 308.291 620.624 308.605H620.58ZM583.249 236.547C593.12 236.906 604.741 235.739 617.304 231.253C622.329 229.458 633.816 224.343 631.213 215.638C629.867 211.017 624.887 206.71 619.996 207.876C601.825 212.184 589.665 221.696 583.249 236.502V236.547Z" fill="white"/>
<path d="M395.205 265.801C397.358 256.558 394.487 247.988 388.788 246.642C383.09 245.341 376.719 251.712 374.61 261C372.456 270.243 375.328 278.813 381.026 280.159C386.725 281.505 393.096 275.089 395.249 265.801H395.205Z" fill="white"/>
<path d="M712.966 303.307C699.91 306.582 685.956 307.12 673.482 304.383C665.855 302.678 661.054 295.186 662.759 287.558C664.419 279.93 671.957 275.129 679.585 276.834C694.75 280.2 715.389 275.533 726.517 266.201C731.093 262.387 733.337 258.438 733.202 254.58C732.933 247.176 724.228 243.901 704.845 239.235C700.628 238.203 696.231 237.171 692.193 235.959C678.867 231.876 668.906 223.531 664.195 212.404C659.708 201.86 660.471 189.79 666.259 178.349C673.303 164.529 687.033 154.12 702.243 151.024C715.838 148.287 729.209 151.787 739.843 160.805C754.739 173.458 755.502 191.36 753.572 199.975L726.023 193.828V194.097C726.068 193.379 727.055 186.963 721.581 182.342C717.453 178.842 712.966 177.676 707.807 178.708C701.121 180.054 694.526 185.034 691.43 191.136C690.039 193.873 688.693 197.821 690.173 201.321C691.564 204.552 695.288 207.333 700.403 208.904C703.589 209.891 707.358 210.788 711.351 211.731C730.779 216.397 760.213 223.396 761.334 253.413C761.828 266.111 755.861 278.36 744.554 287.782C735.984 294.961 724.812 300.256 712.922 303.262L712.966 303.307Z" fill="white"/>
</g>
<defs>
<clipPath id="clip0_2608_7658">
<rect width="814" height="609.805" fill="white"/>
</clipPath>
</defs>
</svg>
