<svg width="20" height="20" viewBox="0 0 20 20" fill="none" xmlns="http://www.w3.org/2000/svg">
<g clip-path="url(#clip0_41896_5025)">
<path d="M12.8552 5.73589C13.0322 5.31106 12.8313 4.82316 12.4064 4.64615C11.9816 4.46913 11.4937 4.67003 11.3167 5.09487L9.44705 9.58204H6.66927C6.20903 9.58204 5.83594 9.95514 5.83594 10.4154C5.83594 10.8756 6.20903 11.2487 6.66927 11.2487H9.44705C10.1199 11.2487 10.7267 10.8441 10.9855 10.2231L12.8552 5.73589Z" fill="#A73AFD"/>
<path fill-rule="evenodd" clip-rule="evenodd" d="M10.0026 0.832031C4.93999 0.832031 0.835938 4.93609 0.835938 9.9987C0.835938 15.0613 4.93999 19.1654 10.0026 19.1654C15.0652 19.1654 19.1693 15.0613 19.1693 9.9987C19.1693 4.93609 15.0652 0.832031 10.0026 0.832031ZM2.5026 9.9987C2.5026 5.85656 5.86047 2.4987 10.0026 2.4987C14.1447 2.4987 17.5026 5.85656 17.5026 9.9987C17.5026 14.1408 14.1447 17.4987 10.0026 17.4987C5.86047 17.4987 2.5026 14.1408 2.5026 9.9987Z" fill="#A73AFD"/>
</g>
<defs>
<clipPath id="clip0_41896_5025">
<rect width="20" height="20" fill="white"/>
</clipPath>
</defs>
</svg>
