<svg width="54" height="54" viewBox="0 0 54 54" fill="none" xmlns="http://www.w3.org/2000/svg">
<g clip-path="url(#clip0_22678_28239)">
<path d="M27.0112 54.0225C41.9291 54.0225 54.0225 41.9291 54.0225 27.0112C54.0225 12.0933 41.9291 0 27.0112 0C12.0933 0 0 12.0933 0 27.0112C0 41.9291 12.0933 54.0225 27.0112 54.0225Z" fill="url(#paint0_linear_22678_28239)"/>
<path fill-rule="evenodd" clip-rule="evenodd" d="M12.2113 26.7189C20.0831 23.3003 25.3234 21.0288 27.9548 19.9267C35.4442 16.8005 37.0185 16.2608 38.0306 16.2383C38.2555 16.2383 38.7503 16.2833 39.0876 16.5532C39.3575 16.7781 39.425 17.0704 39.47 17.2953C39.515 17.5202 39.5599 17.9926 39.515 18.3524C39.1101 22.6256 37.3559 32.9938 36.4562 37.7618C36.0739 39.786 35.3317 40.4607 34.612 40.5282C33.0377 40.6631 31.8457 39.4936 30.3388 38.504C27.9548 36.9522 26.6278 35.9851 24.3113 34.4557C21.6349 32.7014 23.3667 31.7343 24.8961 30.16C25.3009 29.7552 32.2055 23.4578 32.3405 22.8955C32.3629 22.828 32.3629 22.5581 32.2055 22.4232C32.0481 22.2883 31.8232 22.3332 31.6432 22.3782C31.3958 22.4232 27.6174 24.9422 20.263 29.9126C19.1834 30.6548 18.2163 31.0146 17.3392 30.9921C16.3721 30.9696 14.5279 30.4524 13.1335 30.0025C11.4467 29.4628 10.0972 29.1704 10.2097 28.2258C10.2772 27.731 10.9519 27.2362 12.2113 26.7189Z" fill="white"/>
</g>
<defs>
<linearGradient id="paint0_linear_22678_28239" x1="26.9888" y1="0" x2="26.9888" y2="53.5952" gradientUnits="userSpaceOnUse">
<stop stop-color="#2AABEE"/>
<stop offset="1" stop-color="#229ED9"/>
</linearGradient>
<clipPath id="clip0_22678_28239">
<rect width="54" height="54" fill="white"/>
</clipPath>
</defs>
</svg>
